<?xml version="1.0" encoding="UTF-8" standalone="no"?>
<!DOCTYPE svg PUBLIC "-//W3C//DTD SVG 1.1//EN"
 "http://www.w3.org/Graphics/SVG/1.1/DTD/svg11.dtd">
<!-- Generated by graphviz version 2.44.0 (0)
 -->
<!-- Title: G Pages: 1 -->
<svg width="777pt" height="303pt"
 viewBox="0.00 0.00 777.00 303.00" xmlns="http://www.w3.org/2000/svg" xmlns:xlink="http://www.w3.org/1999/xlink">
<g id="graph0" class="graph" transform="scale(1 1) rotate(0) translate(4 299)">
<title>G</title>
<polygon fill="transparent" stroke="transparent" points="-4,4 -4,-299 773,-299 773,4 -4,4"/>
<g id="clust1" class="cluster">
<title>cluster_0</title>
<polygon fill="transparent" stroke="black" points="8,-8 8,-287 178,-287 178,-8 8,-8"/>
<text text-anchor="middle" x="93" y="-271.8" font-family="Times,serif" font-size="14.00">Pré&#45;rotação</text>
</g>
<g id="clust2" class="cluster">
<title>cluster_1</title>
<polygon fill="transparent" stroke="black" points="186,-8 186,-287 399,-287 399,-8 186,-8"/>
<text text-anchor="middle" x="292.5" y="-271.8" font-family="Times,serif" font-size="14.00">Após rotação à direita em b</text>
</g>
<g id="clust3" class="cluster">
<title>cluster_2</title>
<polygon fill="transparent" stroke="black" points="407,-76 407,-287 761,-287 761,-76 407,-76"/>
<text text-anchor="middle" x="584" y="-271.8" font-family="Times,serif" font-size="14.00">Após rotação à esquerda em a</text>
</g>
<!-- a0 -->
<g id="node1" class="node">
<title>a0</title>
<ellipse fill="none" stroke="black" cx="85" cy="-238" rx="18" ry="18"/>
<text text-anchor="middle" x="85" y="-234.3" font-family="Times,serif" font-size="14.00">a</text>
</g>
<!-- b0 -->
<g id="node2" class="node">
<title>b0</title>
<ellipse fill="none" stroke="black" cx="120" cy="-175" rx="18" ry="18"/>
<text text-anchor="middle" x="120" y="-171.3" font-family="Times,serif" font-size="14.00">b</text>
</g>
<!-- a0&#45;&#45;b0 -->
<g id="edge2" class="edge">
<title>a0:se&#45;&#45;b0</title>
<path fill="none" stroke="black" d="M98,-224C106.56,-215.44 112.14,-202.95 115.54,-192.85"/>
</g>
<!-- LA0 -->
<g id="node4" class="node">
<title>LA0</title>
<polygon fill="none" stroke="black" points="50,-198 16.4,-163.5 83.6,-163.5 50,-198"/>
<text text-anchor="middle" x="50" y="-171.3" font-family="Times,serif" font-size="14.00">X</text>
</g>
<!-- a0&#45;&#45;LA0 -->
<g id="edge1" class="edge">
<title>a0:sw&#45;&#45;LA0:n</title>
<path fill="none" stroke="black" d="M72,-224C61.3,-213.3 50,-213.14 50,-198"/>
</g>
<!-- c0 -->
<g id="node3" class="node">
<title>c0</title>
<ellipse fill="none" stroke="black" cx="54" cy="-107" rx="18" ry="18"/>
<text text-anchor="middle" x="54" y="-103.3" font-family="Times,serif" font-size="14.00">c</text>
</g>
<!-- b0&#45;&#45;c0 -->
<g id="edge3" class="edge">
<title>b0:sw&#45;&#45;c0</title>
<path fill="none" stroke="black" d="M107,-161C93.2,-147.2 77.37,-131.37 66.64,-120.64"/>
</g>
<!-- RB0 -->
<g id="node5" class="node">
<title>RB0</title>
<polygon fill="none" stroke="black" points="130,-130 89.91,-95.5 170.09,-95.5 130,-130"/>
<text text-anchor="middle" x="130" y="-103.3" font-family="Times,serif" font-size="14.00">W</text>
</g>
<!-- b0&#45;&#45;RB0 -->
<g id="edge4" class="edge">
<title>b0:se&#45;&#45;RB0:n</title>
<path fill="none" stroke="black" d="M133,-161C142.79,-151.21 130,-143.84 130,-130"/>
</g>
<!-- LC0 -->
<g id="node6" class="node">
<title>LC0</title>
<polygon fill="none" stroke="black" points="50,-62 16.4,-27.5 83.6,-27.5 50,-62"/>
<text text-anchor="middle" x="50" y="-35.3" font-family="Times,serif" font-size="14.00">Y</text>
</g>
<!-- c0&#45;&#45;LC0 -->
<g id="edge5" class="edge">
<title>c0:sw&#45;&#45;LC0:n</title>
<path fill="none" stroke="black" d="M41,-93C30.86,-82.86 50,-76.35 50,-62"/>
</g>
<!-- RC0 -->
<g id="node7" class="node">
<title>RC0</title>
<polygon fill="none" stroke="black" points="136,-62 102.4,-27.5 169.6,-27.5 136,-62"/>
<text text-anchor="middle" x="136" y="-35.3" font-family="Times,serif" font-size="14.00">Z</text>
</g>
<!-- c0&#45;&#45;RC0 -->
<g id="edge6" class="edge">
<title>c0:se&#45;&#45;RC0:n</title>
<path fill="none" stroke="black" d="M67,-93C73.92,-86.08 72.74,-81.25 81,-76 102.3,-62.48 136,-87.22 136,-62"/>
</g>
<!-- a1 -->
<g id="node8" class="node">
<title>a1</title>
<ellipse fill="none" stroke="black" cx="276" cy="-238" rx="18" ry="18"/>
<text text-anchor="middle" x="276" y="-234.3" font-family="Times,serif" font-size="14.00">a</text>
</g>
<!-- c1 -->
<g id="node10" class="node">
<title>c1</title>
<ellipse fill="none" stroke="black" cx="311" cy="-175" rx="18" ry="18"/>
<text text-anchor="middle" x="311" y="-171.3" font-family="Times,serif" font-size="14.00">c</text>
</g>
<!-- a1&#45;&#45;c1 -->
<g id="edge8" class="edge">
<title>a1:se&#45;&#45;c1</title>
<path fill="none" stroke="black" d="M289,-224C297.56,-215.44 303.14,-202.95 306.54,-192.85"/>
</g>
<!-- LA1 -->
<g id="node11" class="node">
<title>LA1</title>
<polygon fill="none" stroke="black" points="241,-198 207.4,-163.5 274.6,-163.5 241,-198"/>
<text text-anchor="middle" x="241" y="-171.3" font-family="Times,serif" font-size="14.00">X</text>
</g>
<!-- a1&#45;&#45;LA1 -->
<g id="edge7" class="edge">
<title>a1:sw&#45;&#45;LA1:n</title>
<path fill="none" stroke="black" d="M263,-224C252.3,-213.3 241,-213.14 241,-198"/>
</g>
<!-- b1 -->
<g id="node9" class="node">
<title>b1</title>
<ellipse fill="none" stroke="black" cx="327" cy="-107" rx="18" ry="18"/>
<text text-anchor="middle" x="327" y="-103.3" font-family="Times,serif" font-size="14.00">b</text>
</g>
<!-- RB1 -->
<g id="node12" class="node">
<title>RB1</title>
<polygon fill="none" stroke="black" points="347,-62 306.91,-27.5 387.09,-27.5 347,-62"/>
<text text-anchor="middle" x="347" y="-35.3" font-family="Times,serif" font-size="14.00">W</text>
</g>
<!-- b1&#45;&#45;RB1 -->
<g id="edge12" class="edge">
<title>b1:se&#45;&#45;RB1:n</title>
<path fill="none" stroke="black" d="M340,-93C349.99,-83.01 347,-76.12 347,-62"/>
</g>
<!-- RC1 -->
<g id="node14" class="node">
<title>RC1</title>
<polygon fill="none" stroke="black" points="255,-62 221.4,-27.5 288.6,-27.5 255,-62"/>
<text text-anchor="middle" x="255" y="-35.3" font-family="Times,serif" font-size="14.00">Z</text>
</g>
<!-- b1&#45;&#45;RC1 -->
<g id="edge11" class="edge">
<title>b1:sw&#45;&#45;RC1:n</title>
<path fill="none" stroke="black" d="M314,-93C307.08,-86.08 308.12,-81.46 300,-76 282.62,-64.32 255,-82.95 255,-62"/>
</g>
<!-- c1&#45;&#45;b1 -->
<g id="edge10" class="edge">
<title>c1:se&#45;&#45;b1</title>
<path fill="none" stroke="black" d="M324,-161C333.25,-151.75 333.16,-136.45 331.25,-124.66"/>
</g>
<!-- LC1 -->
<g id="node13" class="node">
<title>LC1</title>
<polygon fill="none" stroke="black" points="257,-130 223.4,-95.5 290.6,-95.5 257,-130"/>
<text text-anchor="middle" x="257" y="-103.3" font-family="Times,serif" font-size="14.00">Y</text>
</g>
<!-- c1&#45;&#45;LC1 -->
<g id="edge9" class="edge">
<title>c1:sw&#45;&#45;LC1:n</title>
<path fill="none" stroke="black" d="M298,-161C293.96,-156.96 257,-135.71 257,-130"/>
</g>
<!-- a2 -->
<g id="node15" class="node">
<title>a2</title>
<ellipse fill="none" stroke="black" cx="522" cy="-175" rx="18" ry="18"/>
<text text-anchor="middle" x="522" y="-171.3" font-family="Times,serif" font-size="14.00">a</text>
</g>
<!-- LA2 -->
<g id="node18" class="node">
<title>LA2</title>
<polygon fill="none" stroke="black" points="449,-130 415.4,-95.5 482.6,-95.5 449,-130"/>
<text text-anchor="middle" x="449" y="-103.3" font-family="Times,serif" font-size="14.00">X</text>
</g>
<!-- a2&#45;&#45;LA2 -->
<g id="edge15" class="edge">
<title>a2:sw&#45;&#45;LA2:n</title>
<path fill="none" stroke="black" d="M509,-161C487.78,-139.78 449,-160.02 449,-130"/>
</g>
<!-- LC2 -->
<g id="node20" class="node">
<title>LC2</title>
<polygon fill="none" stroke="black" points="535,-130 501.4,-95.5 568.6,-95.5 535,-130"/>
<text text-anchor="middle" x="535" y="-103.3" font-family="Times,serif" font-size="14.00">Y</text>
</g>
<!-- a2&#45;&#45;LC2 -->
<g id="edge16" class="edge">
<title>a2:se&#45;&#45;LC2:n</title>
<path fill="none" stroke="black" d="M535,-161C544.74,-151.26 535,-143.78 535,-130"/>
</g>
<!-- b2 -->
<g id="node16" class="node">
<title>b2</title>
<ellipse fill="none" stroke="black" cx="634" cy="-175" rx="18" ry="18"/>
<text text-anchor="middle" x="634" y="-171.3" font-family="Times,serif" font-size="14.00">b</text>
</g>
<!-- RB2 -->
<g id="node19" class="node">
<title>RB2</title>
<polygon fill="none" stroke="black" points="713,-130 672.91,-95.5 753.09,-95.5 713,-130"/>
<text text-anchor="middle" x="713" y="-103.3" font-family="Times,serif" font-size="14.00">W</text>
</g>
<!-- b2&#45;&#45;RB2 -->
<g id="edge18" class="edge">
<title>b2:se&#45;&#45;RB2:n</title>
<path fill="none" stroke="black" d="M647,-161C669.92,-138.08 713,-162.41 713,-130"/>
</g>
<!-- RC2 -->
<g id="node21" class="node">
<title>RC2</title>
<polygon fill="none" stroke="black" points="621,-130 587.4,-95.5 654.6,-95.5 621,-130"/>
<text text-anchor="middle" x="621" y="-103.3" font-family="Times,serif" font-size="14.00">Z</text>
</g>
<!-- b2&#45;&#45;RC2 -->
<g id="edge17" class="edge">
<title>b2:sw&#45;&#45;RC2:n</title>
<path fill="none" stroke="black" d="M621,-161C611.26,-151.26 621,-143.78 621,-130"/>
</g>
<!-- c2 -->
<g id="node17" class="node">
<title>c2</title>
<ellipse fill="none" stroke="black" cx="578" cy="-238" rx="18" ry="18"/>
<text text-anchor="middle" x="578" y="-234.3" font-family="Times,serif" font-size="14.00">c</text>
</g>
<!-- c2&#45;&#45;a2 -->
<g id="edge13" class="edge">
<title>c2:sw&#45;&#45;a2</title>
<path fill="none" stroke="black" d="M565,-224C553.77,-212.77 541.76,-199.23 533.3,-189.4"/>
</g>
<!-- c2&#45;&#45;b2 -->
<g id="edge14" class="edge">
<title>c2:se&#45;&#45;b2</title>
<path fill="none" stroke="black" d="M591,-224C602.23,-212.77 614.24,-199.23 622.7,-189.4"/>
</g>
</g>
</svg>
