<?xml version="1.0" encoding="UTF-8" standalone="no"?>
<!DOCTYPE svg PUBLIC "-//W3C//DTD SVG 1.1//EN"
 "http://www.w3.org/Graphics/SVG/1.1/DTD/svg11.dtd">
<!-- Generated by graphviz version 2.44.0 (0)
 -->
<!-- Title: G Pages: 1 -->
<svg width="796pt" height="303pt"
 viewBox="0.00 0.00 796.00 303.00" xmlns="http://www.w3.org/2000/svg" xmlns:xlink="http://www.w3.org/1999/xlink">
<g id="graph0" class="graph" transform="scale(1 1) rotate(0) translate(4 299)">
<title>G</title>
<polygon fill="transparent" stroke="transparent" points="-4,4 -4,-299 792,-299 792,4 -4,4"/>
<g id="clust1" class="cluster">
<title>cluster_0</title>
<polygon fill="transparent" stroke="black" points="8,-8 8,-287 178,-287 178,-8 8,-8"/>
<text text-anchor="middle" x="93" y="-271.8" font-family="Times,serif" font-size="14.00">Pré&#45;rotação</text>
</g>
<g id="clust2" class="cluster">
<title>cluster_1</title>
<polygon fill="transparent" stroke="black" points="186,-8 186,-287 418,-287 418,-8 186,-8"/>
<text text-anchor="middle" x="302" y="-271.8" font-family="Times,serif" font-size="14.00">Após rotação à esquerda em b</text>
</g>
<g id="clust3" class="cluster">
<title>cluster_2</title>
<polygon fill="transparent" stroke="black" points="426,-76 426,-287 780,-287 780,-76 426,-76"/>
<text text-anchor="middle" x="603" y="-271.8" font-family="Times,serif" font-size="14.00">Após rotação à direita em a</text>
</g>
<!-- a0 -->
<g id="node1" class="node">
<title>a0</title>
<ellipse fill="none" stroke="black" cx="92" cy="-238" rx="18" ry="18"/>
<text text-anchor="middle" x="92" y="-234.3" font-family="Times,serif" font-size="14.00">a</text>
</g>
<!-- b0 -->
<g id="node2" class="node">
<title>b0</title>
<ellipse fill="none" stroke="black" cx="54" cy="-175" rx="18" ry="18"/>
<text text-anchor="middle" x="54" y="-171.3" font-family="Times,serif" font-size="14.00">b</text>
</g>
<!-- a0&#45;&#45;b0 -->
<g id="edge1" class="edge">
<title>a0:sw&#45;&#45;b0</title>
<path fill="none" stroke="black" d="M79,-224C70.1,-215.1 63.66,-202.36 59.56,-192.25"/>
</g>
<!-- RA0 -->
<g id="node4" class="node">
<title>RA0</title>
<polygon fill="none" stroke="black" points="130,-198 89.91,-163.5 170.09,-163.5 130,-198"/>
<text text-anchor="middle" x="130" y="-171.3" font-family="Times,serif" font-size="14.00">W</text>
</g>
<!-- a0&#45;&#45;RA0 -->
<g id="edge2" class="edge">
<title>a0:se&#45;&#45;RA0:n</title>
<path fill="none" stroke="black" d="M105,-224C116.34,-212.66 130,-214.03 130,-198"/>
</g>
<!-- c0 -->
<g id="node3" class="node">
<title>c0</title>
<ellipse fill="none" stroke="black" cx="120" cy="-107" rx="18" ry="18"/>
<text text-anchor="middle" x="120" y="-103.3" font-family="Times,serif" font-size="14.00">c</text>
</g>
<!-- b0&#45;&#45;c0 -->
<g id="edge4" class="edge">
<title>b0:se&#45;&#45;c0</title>
<path fill="none" stroke="black" d="M67,-161C80.8,-147.2 96.63,-131.37 107.36,-120.64"/>
</g>
<!-- LB0 -->
<g id="node5" class="node">
<title>LB0</title>
<polygon fill="none" stroke="black" points="50,-130 16.4,-95.5 83.6,-95.5 50,-130"/>
<text text-anchor="middle" x="50" y="-103.3" font-family="Times,serif" font-size="14.00">X</text>
</g>
<!-- b0&#45;&#45;LB0 -->
<g id="edge3" class="edge">
<title>b0:sw&#45;&#45;LB0:n</title>
<path fill="none" stroke="black" d="M41,-161C30.86,-150.86 50,-144.35 50,-130"/>
</g>
<!-- LC0 -->
<g id="node6" class="node">
<title>LC0</title>
<polygon fill="none" stroke="black" points="50,-62 16.4,-27.5 83.6,-27.5 50,-62"/>
<text text-anchor="middle" x="50" y="-35.3" font-family="Times,serif" font-size="14.00">Y</text>
</g>
<!-- c0&#45;&#45;LC0 -->
<g id="edge5" class="edge">
<title>c0:sw&#45;&#45;LC0:n</title>
<path fill="none" stroke="black" d="M107,-93C100.08,-86.08 101.09,-81.51 93,-76 76.39,-64.68 50,-82.1 50,-62"/>
</g>
<!-- RC0 -->
<g id="node7" class="node">
<title>RC0</title>
<polygon fill="none" stroke="black" points="136,-62 102.4,-27.5 169.6,-27.5 136,-62"/>
<text text-anchor="middle" x="136" y="-35.3" font-family="Times,serif" font-size="14.00">Z</text>
</g>
<!-- c0&#45;&#45;RC0 -->
<g id="edge6" class="edge">
<title>c0:se&#45;&#45;RC0:n</title>
<path fill="none" stroke="black" d="M133,-93C142.79,-83.21 136,-75.84 136,-62"/>
</g>
<!-- a1 -->
<g id="node8" class="node">
<title>a1</title>
<ellipse fill="none" stroke="black" cx="327" cy="-238" rx="18" ry="18"/>
<text text-anchor="middle" x="327" y="-234.3" font-family="Times,serif" font-size="14.00">a</text>
</g>
<!-- c1 -->
<g id="node10" class="node">
<title>c1</title>
<ellipse fill="none" stroke="black" cx="289" cy="-175" rx="18" ry="18"/>
<text text-anchor="middle" x="289" y="-171.3" font-family="Times,serif" font-size="14.00">c</text>
</g>
<!-- a1&#45;&#45;c1 -->
<g id="edge7" class="edge">
<title>a1:sw&#45;&#45;c1</title>
<path fill="none" stroke="black" d="M314,-224C305.1,-215.1 298.66,-202.36 294.56,-192.25"/>
</g>
<!-- RA1 -->
<g id="node11" class="node">
<title>RA1</title>
<polygon fill="none" stroke="black" points="365,-198 324.91,-163.5 405.09,-163.5 365,-198"/>
<text text-anchor="middle" x="365" y="-171.3" font-family="Times,serif" font-size="14.00">W</text>
</g>
<!-- a1&#45;&#45;RA1 -->
<g id="edge8" class="edge">
<title>a1:se&#45;&#45;RA1:n</title>
<path fill="none" stroke="black" d="M340,-224C351.34,-212.66 365,-214.03 365,-198"/>
</g>
<!-- b1 -->
<g id="node9" class="node">
<title>b1</title>
<ellipse fill="none" stroke="black" cx="271" cy="-107" rx="18" ry="18"/>
<text text-anchor="middle" x="271" y="-103.3" font-family="Times,serif" font-size="14.00">b</text>
</g>
<!-- LB1 -->
<g id="node12" class="node">
<title>LB1</title>
<polygon fill="none" stroke="black" points="248,-62 214.4,-27.5 281.6,-27.5 248,-62"/>
<text text-anchor="middle" x="248" y="-35.3" font-family="Times,serif" font-size="14.00">X</text>
</g>
<!-- b1&#45;&#45;LB1 -->
<g id="edge11" class="edge">
<title>b1:sw&#45;&#45;LB1:n</title>
<path fill="none" stroke="black" d="M258,-93C247.76,-82.76 248,-76.48 248,-62"/>
</g>
<!-- LC1 -->
<g id="node13" class="node">
<title>LC1</title>
<polygon fill="none" stroke="black" points="334,-62 300.4,-27.5 367.6,-27.5 334,-62"/>
<text text-anchor="middle" x="334" y="-35.3" font-family="Times,serif" font-size="14.00">Y</text>
</g>
<!-- b1&#45;&#45;LC1 -->
<g id="edge12" class="edge">
<title>b1:se&#45;&#45;LC1:n</title>
<path fill="none" stroke="black" d="M284,-93C290.92,-86.08 290.07,-81.74 298,-76 311.91,-65.94 334,-79.17 334,-62"/>
</g>
<!-- c1&#45;&#45;b1 -->
<g id="edge9" class="edge">
<title>c1:sw&#45;&#45;b1</title>
<path fill="none" stroke="black" d="M276,-161C266.85,-151.85 266.21,-136.86 267.51,-125.15"/>
</g>
<!-- RC1 -->
<g id="node14" class="node">
<title>RC1</title>
<polygon fill="none" stroke="black" points="341,-130 307.4,-95.5 374.6,-95.5 341,-130"/>
<text text-anchor="middle" x="341" y="-103.3" font-family="Times,serif" font-size="14.00">Z</text>
</g>
<!-- c1&#45;&#45;RC1 -->
<g id="edge10" class="edge">
<title>c1:se&#45;&#45;RC1:n</title>
<path fill="none" stroke="black" d="M302,-161C309.83,-153.17 341,-141.07 341,-130"/>
</g>
<!-- a2 -->
<g id="node15" class="node">
<title>a2</title>
<ellipse fill="none" stroke="black" cx="653" cy="-175" rx="18" ry="18"/>
<text text-anchor="middle" x="653" y="-171.3" font-family="Times,serif" font-size="14.00">a</text>
</g>
<!-- RA2 -->
<g id="node18" class="node">
<title>RA2</title>
<polygon fill="none" stroke="black" points="732,-130 691.91,-95.5 772.09,-95.5 732,-130"/>
<text text-anchor="middle" x="732" y="-103.3" font-family="Times,serif" font-size="14.00">W</text>
</g>
<!-- a2&#45;&#45;RA2 -->
<g id="edge18" class="edge">
<title>a2:se&#45;&#45;RA2:n</title>
<path fill="none" stroke="black" d="M666,-161C688.92,-138.08 732,-162.41 732,-130"/>
</g>
<!-- RC2 -->
<g id="node21" class="node">
<title>RC2</title>
<polygon fill="none" stroke="black" points="640,-130 606.4,-95.5 673.6,-95.5 640,-130"/>
<text text-anchor="middle" x="640" y="-103.3" font-family="Times,serif" font-size="14.00">Z</text>
</g>
<!-- a2&#45;&#45;RC2 -->
<g id="edge17" class="edge">
<title>a2:sw&#45;&#45;RC2:n</title>
<path fill="none" stroke="black" d="M640,-161C630.26,-151.26 640,-143.78 640,-130"/>
</g>
<!-- b2 -->
<g id="node16" class="node">
<title>b2</title>
<ellipse fill="none" stroke="black" cx="541" cy="-175" rx="18" ry="18"/>
<text text-anchor="middle" x="541" y="-171.3" font-family="Times,serif" font-size="14.00">b</text>
</g>
<!-- LB2 -->
<g id="node19" class="node">
<title>LB2</title>
<polygon fill="none" stroke="black" points="468,-130 434.4,-95.5 501.6,-95.5 468,-130"/>
<text text-anchor="middle" x="468" y="-103.3" font-family="Times,serif" font-size="14.00">X</text>
</g>
<!-- b2&#45;&#45;LB2 -->
<g id="edge15" class="edge">
<title>b2:sw&#45;&#45;LB2:n</title>
<path fill="none" stroke="black" d="M528,-161C506.78,-139.78 468,-160.02 468,-130"/>
</g>
<!-- LC2 -->
<g id="node20" class="node">
<title>LC2</title>
<polygon fill="none" stroke="black" points="554,-130 520.4,-95.5 587.6,-95.5 554,-130"/>
<text text-anchor="middle" x="554" y="-103.3" font-family="Times,serif" font-size="14.00">Y</text>
</g>
<!-- b2&#45;&#45;LC2 -->
<g id="edge16" class="edge">
<title>b2:se&#45;&#45;LC2:n</title>
<path fill="none" stroke="black" d="M554,-161C563.74,-151.26 554,-143.78 554,-130"/>
</g>
<!-- c2 -->
<g id="node17" class="node">
<title>c2</title>
<ellipse fill="none" stroke="black" cx="597" cy="-238" rx="18" ry="18"/>
<text text-anchor="middle" x="597" y="-234.3" font-family="Times,serif" font-size="14.00">c</text>
</g>
<!-- c2&#45;&#45;a2 -->
<g id="edge14" class="edge">
<title>c2:se&#45;&#45;a2</title>
<path fill="none" stroke="black" d="M610,-224C621.23,-212.77 633.24,-199.23 641.7,-189.4"/>
</g>
<!-- c2&#45;&#45;b2 -->
<g id="edge13" class="edge">
<title>c2:sw&#45;&#45;b2</title>
<path fill="none" stroke="black" d="M584,-224C572.77,-212.77 560.76,-199.23 552.3,-189.4"/>
</g>
</g>
</svg>
