<?xml version="1.0" encoding="UTF-8" standalone="no"?>
<!DOCTYPE svg PUBLIC "-//W3C//DTD SVG 1.1//EN"
 "http://www.w3.org/Graphics/SVG/1.1/DTD/svg11.dtd">
<!-- Generated by graphviz version 2.44.0 (0)
 -->
<!-- Title: G Pages: 1 -->
<svg width="460pt" height="273pt"
 viewBox="0.00 0.00 460.00 273.00" xmlns="http://www.w3.org/2000/svg" xmlns:xlink="http://www.w3.org/1999/xlink">
<g id="graph0" class="graph" transform="scale(1 1) rotate(0) translate(4 269)">
<title>G</title>
<polygon fill="transparent" stroke="transparent" points="-4,4 -4,-269 456,-269 456,4 -4,4"/>
<g id="clust1" class="cluster">
<title>cluster_0</title>
<polygon fill="transparent" stroke="black" points="8,-8 8,-257 150,-257 150,-8 8,-8"/>
<text text-anchor="middle" x="79" y="-241.8" font-family="Times,serif" font-size="14.00">Pré&#45;rotação</text>
</g>
<g id="clust2" class="cluster">
<title>cluster_1</title>
<polygon fill="transparent" stroke="black" points="158,-66 158,-257 444,-257 444,-66 158,-66"/>
<text text-anchor="middle" x="301" y="-241.8" font-family="Times,serif" font-size="14.00">Após rotação à direita</text>
</g>
<!-- a0 -->
<g id="node1" class="node">
<title>a0</title>
<ellipse fill="none" stroke="black" cx="83" cy="-208" rx="18" ry="18"/>
<text text-anchor="middle" x="83" y="-204.3" font-family="Times,serif" font-size="14.00">a</text>
</g>
<!-- b0 -->
<g id="node2" class="node">
<title>b0</title>
<ellipse fill="none" stroke="black" cx="52" cy="-150" rx="18" ry="18"/>
<text text-anchor="middle" x="52" y="-146.3" font-family="Times,serif" font-size="14.00">b</text>
</g>
<!-- a0&#45;&#45;b0 -->
<g id="edge1" class="edge">
<title>a0:sw&#45;&#45;b0</title>
<path fill="none" stroke="black" d="M70,-194C62.9,-186.9 58.46,-176.59 55.76,-167.85"/>
</g>
<!-- RA0 -->
<g id="node4" class="node">
<title>RA0</title>
<text text-anchor="middle" x="115" y="-146.3" font-family="Times,serif" font-size="14.00">W</text>
</g>
<!-- a0&#45;&#45;RA0 -->
<g id="edge2" class="edge">
<title>a0:se&#45;&#45;RA0:n</title>
<path fill="none" stroke="black" d="M96,-194C106.12,-183.88 115,-182.31 115,-168"/>
</g>
<!-- c0 -->
<g id="node3" class="node">
<title>c0</title>
<ellipse fill="none" stroke="black" cx="45" cy="-92" rx="18" ry="18"/>
<text text-anchor="middle" x="45" y="-88.3" font-family="Times,serif" font-size="14.00">c</text>
</g>
<!-- b0&#45;&#45;c0 -->
<g id="edge3" class="edge">
<title>b0:sw&#45;&#45;c0</title>
<path fill="none" stroke="black" d="M39,-136C31.96,-128.96 33.78,-117.75 37.19,-108.54"/>
</g>
<!-- RB0 -->
<g id="node5" class="node">
<title>RB0</title>
<text text-anchor="middle" x="108" y="-88.3" font-family="Times,serif" font-size="14.00">Z</text>
</g>
<!-- b0&#45;&#45;RB0 -->
<g id="edge4" class="edge">
<title>b0:se&#45;&#45;RB0:n</title>
<path fill="none" stroke="black" d="M65,-136C80.79,-120.21 108,-132.33 108,-110"/>
</g>
<!-- LC0 -->
<g id="node6" class="node">
<title>LC0</title>
<text text-anchor="middle" x="43" y="-30.3" font-family="Times,serif" font-size="14.00">X</text>
</g>
<!-- c0&#45;&#45;LC0 -->
<g id="edge5" class="edge">
<title>c0:sw&#45;&#45;LC0:n</title>
<path fill="none" stroke="black" d="M32,-78C23.13,-69.13 43,-64.55 43,-52"/>
</g>
<!-- RC0 -->
<g id="node7" class="node">
<title>RC0</title>
<text text-anchor="middle" x="115" y="-30.3" font-family="Times,serif" font-size="14.00">Y</text>
</g>
<!-- c0&#45;&#45;RC0 -->
<g id="edge6" class="edge">
<title>c0:se&#45;&#45;RC0:n</title>
<path fill="none" stroke="black" d="M58,-78C63.79,-72.21 64.85,-70.01 72,-66 89.52,-56.16 115,-72.1 115,-52"/>
</g>
<!-- a1 -->
<g id="node8" class="node">
<title>a1</title>
<ellipse fill="none" stroke="black" cx="350" cy="-150" rx="18" ry="18"/>
<text text-anchor="middle" x="350" y="-146.3" font-family="Times,serif" font-size="14.00">a</text>
</g>
<!-- RA1 -->
<g id="node11" class="node">
<title>RA1</title>
<text text-anchor="middle" x="409" y="-88.3" font-family="Times,serif" font-size="14.00">W</text>
</g>
<!-- a1&#45;&#45;RA1 -->
<g id="edge10" class="edge">
<title>a1:se&#45;&#45;RA1:n</title>
<path fill="none" stroke="black" d="M363,-136C379.61,-119.39 409,-133.48 409,-110"/>
</g>
<!-- RB1 -->
<g id="node12" class="node">
<title>RB1</title>
<text text-anchor="middle" x="337" y="-88.3" font-family="Times,serif" font-size="14.00">Z</text>
</g>
<!-- a1&#45;&#45;RB1 -->
<g id="edge9" class="edge">
<title>a1:sw&#45;&#45;RB1:n</title>
<path fill="none" stroke="black" d="M337,-136C328.83,-127.83 337,-121.56 337,-110"/>
</g>
<!-- b1 -->
<g id="node9" class="node">
<title>b1</title>
<ellipse fill="none" stroke="black" cx="301" cy="-208" rx="18" ry="18"/>
<text text-anchor="middle" x="301" y="-204.3" font-family="Times,serif" font-size="14.00">b</text>
</g>
<!-- b1&#45;&#45;a1 -->
<g id="edge8" class="edge">
<title>b1:se&#45;&#45;a1</title>
<path fill="none" stroke="black" d="M314,-194C323.23,-184.77 332.66,-173.43 339.55,-164.7"/>
</g>
<!-- c1 -->
<g id="node10" class="node">
<title>c1</title>
<ellipse fill="none" stroke="black" cx="252" cy="-150" rx="18" ry="18"/>
<text text-anchor="middle" x="252" y="-146.3" font-family="Times,serif" font-size="14.00">c</text>
</g>
<!-- b1&#45;&#45;c1 -->
<g id="edge7" class="edge">
<title>b1:sw&#45;&#45;c1</title>
<path fill="none" stroke="black" d="M288,-194C278.77,-184.77 269.34,-173.43 262.45,-164.7"/>
</g>
<!-- LC1 -->
<g id="node13" class="node">
<title>LC1</title>
<text text-anchor="middle" x="193" y="-88.3" font-family="Times,serif" font-size="14.00">X</text>
</g>
<!-- c1&#45;&#45;LC1 -->
<g id="edge11" class="edge">
<title>c1:sw&#45;&#45;LC1:n</title>
<path fill="none" stroke="black" d="M239,-136C222.39,-119.39 193,-133.48 193,-110"/>
</g>
<!-- RC1 -->
<g id="node14" class="node">
<title>RC1</title>
<text text-anchor="middle" x="265" y="-88.3" font-family="Times,serif" font-size="14.00">Y</text>
</g>
<!-- c1&#45;&#45;RC1 -->
<g id="edge12" class="edge">
<title>c1:se&#45;&#45;RC1:n</title>
<path fill="none" stroke="black" d="M265,-136C273.17,-127.83 265,-121.56 265,-110"/>
</g>
</g>
</svg>
