<?xml version="1.0" encoding="UTF-8" standalone="no"?>
<!DOCTYPE svg PUBLIC "-//W3C//DTD SVG 1.1//EN"
 "http://www.w3.org/Graphics/SVG/1.1/DTD/svg11.dtd">
<!-- Generated by graphviz version 2.44.0 (0)
 -->
<!-- Title: G Pages: 1 -->
<svg width="274pt" height="256pt"
 viewBox="0.00 0.00 274.50 255.98" xmlns="http://www.w3.org/2000/svg" xmlns:xlink="http://www.w3.org/1999/xlink">
<g id="graph0" class="graph" transform="scale(1 1) rotate(0) translate(4 251.98)">
<title>G</title>
<polygon fill="transparent" stroke="transparent" points="-4,4 -4,-251.98 270.5,-251.98 270.5,4 -4,4"/>
<!-- 28 -->
<g id="node1" class="node">
<title>28</title>
<ellipse fill="none" stroke="black" cx="132.75" cy="-225.24" rx="23" ry="23"/>
<text text-anchor="middle" x="132.75" y="-221.54" font-family="Times,serif" font-size="14.00">28</text>
</g>
<!-- 22 -->
<g id="node2" class="node">
<title>22</title>
<ellipse fill="none" stroke="black" cx="85.75" cy="-157.74" rx="23" ry="23"/>
<text text-anchor="middle" x="85.75" y="-154.04" font-family="Times,serif" font-size="14.00">22</text>
</g>
<!-- 28&#45;&#45;22 -->
<g id="edge1" class="edge">
<title>28:sw&#45;&#45;22</title>
<path fill="none" stroke="black" d="M116.75,-208.24C108.14,-199.63 100.8,-188.22 95.41,-178.52"/>
</g>
<!-- 35 -->
<g id="node3" class="node">
<title>35</title>
<ellipse fill="none" stroke="black" cx="180.75" cy="-157.74" rx="23" ry="23"/>
<text text-anchor="middle" x="180.75" y="-154.04" font-family="Times,serif" font-size="14.00">35</text>
</g>
<!-- 28&#45;&#45;35 -->
<g id="edge2" class="edge">
<title>28:se&#45;&#45;35</title>
<path fill="none" stroke="black" d="M148.75,-208.24C157.43,-199.55 165,-188.14 170.6,-178.45"/>
</g>
<!-- 20 -->
<g id="node4" class="node">
<title>20</title>
<ellipse fill="none" stroke="black" cx="38.75" cy="-90.24" rx="23" ry="23"/>
<text text-anchor="middle" x="38.75" y="-86.54" font-family="Times,serif" font-size="14.00">20</text>
</g>
<!-- 22&#45;&#45;20 -->
<g id="edge3" class="edge">
<title>22:sw&#45;&#45;20</title>
<path fill="none" stroke="black" d="M69.75,-140.74C61.14,-132.14 53.8,-120.72 48.41,-111.02"/>
</g>
<!-- 25 -->
<g id="node5" class="node">
<title>25</title>
<ellipse fill="none" stroke="black" cx="101.75" cy="-90.24" rx="23" ry="23"/>
<text text-anchor="middle" x="101.75" y="-86.54" font-family="Times,serif" font-size="14.00">25</text>
</g>
<!-- 22&#45;&#45;25 -->
<g id="edge4" class="edge">
<title>22:se&#45;&#45;25</title>
<path fill="none" stroke="black" d="M101.75,-140.74C108.98,-133.51 109.49,-122.31 107.96,-112.39"/>
</g>
<!-- 32 -->
<g id="node6" class="node">
<title>32</title>
<ellipse fill="none" stroke="black" cx="164.75" cy="-90.24" rx="23" ry="23"/>
<text text-anchor="middle" x="164.75" y="-86.54" font-family="Times,serif" font-size="14.00">32</text>
</g>
<!-- 35&#45;&#45;32 -->
<g id="edge5" class="edge">
<title>35:sw&#45;&#45;32</title>
<path fill="none" stroke="black" d="M164.75,-140.74C157.52,-133.51 157.01,-122.31 158.54,-112.39"/>
</g>
<!-- 39 -->
<g id="node7" class="node">
<title>39</title>
<ellipse fill="none" stroke="black" cx="227.75" cy="-90.24" rx="23" ry="23"/>
<text text-anchor="middle" x="227.75" y="-86.54" font-family="Times,serif" font-size="14.00">39</text>
</g>
<!-- 35&#45;&#45;39 -->
<g id="edge6" class="edge">
<title>35:se&#45;&#45;39</title>
<path fill="none" stroke="black" d="M196.75,-140.74C205.35,-132.14 212.7,-120.72 218.08,-111.02"/>
</g>
<!-- 13 -->
<g id="node8" class="node">
<title>13</title>
<ellipse fill="none" stroke="black" cx="22.75" cy="-22.75" rx="23" ry="23"/>
<text text-anchor="middle" x="22.75" y="-19.05" font-family="Times,serif" font-size="14.00">13</text>
</g>
<!-- 20&#45;&#45;13 -->
<g id="edge7" class="edge">
<title>20:sw&#45;&#45;13</title>
<path fill="none" stroke="black" d="M22.75,-73.24C15.52,-66.01 15.01,-54.81 16.54,-44.89"/>
</g>
<!-- 33 -->
<g id="node9" class="node">
<title>33</title>
<ellipse fill="none" stroke="black" cx="180.75" cy="-22.75" rx="23" ry="23"/>
<text text-anchor="middle" x="180.75" y="-19.05" font-family="Times,serif" font-size="14.00">33</text>
</g>
<!-- 32&#45;&#45;33 -->
<g id="edge8" class="edge">
<title>32:se&#45;&#45;33</title>
<path fill="none" stroke="black" d="M180.75,-73.24C187.98,-66.01 188.49,-54.81 186.96,-44.89"/>
</g>
<!-- 51 -->
<g id="node10" class="node">
<title>51</title>
<ellipse fill="none" stroke="black" cx="243.75" cy="-22.75" rx="23" ry="23"/>
<text text-anchor="middle" x="243.75" y="-19.05" font-family="Times,serif" font-size="14.00">51</text>
</g>
<!-- 39&#45;&#45;51 -->
<g id="edge9" class="edge">
<title>39:se&#45;&#45;51</title>
<path fill="none" stroke="black" d="M243.75,-73.24C250.98,-66.01 251.49,-54.81 249.96,-44.89"/>
</g>
</g>
</svg>
