<?xml version="1.0" encoding="UTF-8" standalone="no"?>
<!DOCTYPE svg PUBLIC "-//W3C//DTD SVG 1.1//EN"
 "http://www.w3.org/Graphics/SVG/1.1/DTD/svg11.dtd">
<!-- Generated by graphviz version 2.40.1 (20161225.0304)
 -->
<!-- Title: G Pages: 1 -->
<svg width="460pt" height="273pt"
 viewBox="0.00 0.00 460.00 273.00" xmlns="http://www.w3.org/2000/svg" xmlns:xlink="http://www.w3.org/1999/xlink">
<g id="graph0" class="graph" transform="scale(1 1) rotate(0) translate(4 269)">
<title>G</title>
<polygon fill="transparent" stroke="transparent" points="-4,4 -4,-269 456,-269 456,4 -4,4"/>
<g id="clust1" class="cluster">
<title>cluster_0</title>
<polygon fill="transparent" stroke="#000000" points="8,-8 8,-257 150,-257 150,-8 8,-8"/>
<text text-anchor="middle" x="79" y="-241.8" font-family="Times,serif" font-size="14.00" fill="#000000">Pré&#45;rotação</text>
</g>
<g id="clust2" class="cluster">
<title>cluster_1</title>
<polygon fill="transparent" stroke="#000000" points="158,-66 158,-257 444,-257 444,-66 158,-66"/>
<text text-anchor="middle" x="301" y="-241.8" font-family="Times,serif" font-size="14.00" fill="#000000">Após rotação à direita</text>
</g>
<!-- a0 -->
<g id="node1" class="node">
<title>a0</title>
<ellipse fill="none" stroke="#000000" cx="83" cy="-208" rx="18" ry="18"/>
<text text-anchor="middle" x="83" y="-204.3" font-family="Times,serif" font-size="14.00" fill="#000000">a</text>
</g>
<!-- b0 -->
<g id="node2" class="node">
<title>b0</title>
<ellipse fill="none" stroke="#000000" cx="52" cy="-150" rx="18" ry="18"/>
<text text-anchor="middle" x="52" y="-146.3" font-family="Times,serif" font-size="14.00" fill="#000000">b</text>
</g>
<!-- a0&#45;&#45;b0 -->
<g id="edge1" class="edge">
<title>a0:sw&#45;&#45;b0</title>
<path fill="none" stroke="#000000" d="M70,-195C62.6222,-187.6222 58.1685,-176.8338 55.5372,-167.6698"/>
</g>
<!-- RA0 -->
<g id="node4" class="node">
<title>RA0</title>
<text text-anchor="middle" x="115" y="-146.3" font-family="Times,serif" font-size="14.00" fill="#000000">W</text>
</g>
<!-- a0&#45;&#45;RA0 -->
<g id="edge2" class="edge">
<title>a0:se&#45;&#45;RA0:n</title>
<path fill="none" stroke="#000000" d="M96,-195C106.3757,-184.6243 115,-182.6734 115,-168"/>
</g>
<!-- c0 -->
<g id="node3" class="node">
<title>c0</title>
<ellipse fill="none" stroke="#000000" cx="45" cy="-92" rx="18" ry="18"/>
<text text-anchor="middle" x="45" y="-88.3" font-family="Times,serif" font-size="14.00" fill="#000000">c</text>
</g>
<!-- b0&#45;&#45;c0 -->
<g id="edge3" class="edge">
<title>b0:sw&#45;&#45;c0</title>
<path fill="none" stroke="#000000" d="M39,-137C31.6434,-129.6434 33.4685,-117.9092 36.9626,-108.2677"/>
</g>
<!-- RB0 -->
<g id="node5" class="node">
<title>RB0</title>
<text text-anchor="middle" x="108" y="-88.3" font-family="Times,serif" font-size="14.00" fill="#000000">Z</text>
</g>
<!-- b0&#45;&#45;RB0 -->
<g id="edge4" class="edge">
<title>b0:se&#45;&#45;RB0:n</title>
<path fill="none" stroke="#000000" d="M65,-137C80.9567,-121.0433 108,-132.5662 108,-110"/>
</g>
<!-- LC0 -->
<g id="node6" class="node">
<title>LC0</title>
<text text-anchor="middle" x="43" y="-30.3" font-family="Times,serif" font-size="14.00" fill="#000000">X</text>
</g>
<!-- c0&#45;&#45;LC0 -->
<g id="edge5" class="edge">
<title>c0:sw&#45;&#45;LC0:n</title>
<path fill="none" stroke="#000000" d="M32,-79C22.8375,-69.8375 43,-64.9577 43,-52"/>
</g>
<!-- RC0 -->
<g id="node7" class="node">
<title>RC0</title>
<text text-anchor="middle" x="115" y="-30.3" font-family="Times,serif" font-size="14.00" fill="#000000">Y</text>
</g>
<!-- c0&#45;&#45;RC0 -->
<g id="edge6" class="edge">
<title>c0:se&#45;&#45;RC0:n</title>
<path fill="none" stroke="#000000" d="M58,-79C64.0041,-72.9959 64.6806,-70.304 72,-66 89.3252,-55.8124 115,-72.0985 115,-52"/>
</g>
<!-- a1 -->
<g id="node8" class="node">
<title>a1</title>
<ellipse fill="none" stroke="#000000" cx="350" cy="-150" rx="18" ry="18"/>
<text text-anchor="middle" x="350" y="-146.3" font-family="Times,serif" font-size="14.00" fill="#000000">a</text>
</g>
<!-- RA1 -->
<g id="node11" class="node">
<title>RA1</title>
<text text-anchor="middle" x="409" y="-88.3" font-family="Times,serif" font-size="14.00" fill="#000000">W</text>
</g>
<!-- a1&#45;&#45;RA1 -->
<g id="edge10" class="edge">
<title>a1:se&#45;&#45;RA1:n</title>
<path fill="none" stroke="#000000" d="M363,-137C379.7627,-120.2373 409,-133.706 409,-110"/>
</g>
<!-- RB1 -->
<g id="node12" class="node">
<title>RB1</title>
<text text-anchor="middle" x="337" y="-88.3" font-family="Times,serif" font-size="14.00" fill="#000000">Z</text>
</g>
<!-- a1&#45;&#45;RB1 -->
<g id="edge9" class="edge">
<title>a1:sw&#45;&#45;RB1:n</title>
<path fill="none" stroke="#000000" d="M337,-137C328.5147,-128.5147 337,-122 337,-110"/>
</g>
<!-- b1 -->
<g id="node9" class="node">
<title>b1</title>
<ellipse fill="none" stroke="#000000" cx="301" cy="-208" rx="18" ry="18"/>
<text text-anchor="middle" x="301" y="-204.3" font-family="Times,serif" font-size="14.00" fill="#000000">b</text>
</g>
<!-- b1&#45;&#45;a1 -->
<g id="edge8" class="edge">
<title>b1:se&#45;&#45;a1</title>
<path fill="none" stroke="#000000" d="M314,-195C323.3384,-185.6616 332.6178,-173.9893 339.4164,-164.8728"/>
</g>
<!-- c1 -->
<g id="node10" class="node">
<title>c1</title>
<ellipse fill="none" stroke="#000000" cx="252" cy="-150" rx="18" ry="18"/>
<text text-anchor="middle" x="252" y="-146.3" font-family="Times,serif" font-size="14.00" fill="#000000">c</text>
</g>
<!-- b1&#45;&#45;c1 -->
<g id="edge7" class="edge">
<title>b1:sw&#45;&#45;c1</title>
<path fill="none" stroke="#000000" d="M288,-195C278.6616,-185.6616 269.3822,-173.9893 262.5836,-164.8728"/>
</g>
<!-- LC1 -->
<g id="node13" class="node">
<title>LC1</title>
<text text-anchor="middle" x="193" y="-88.3" font-family="Times,serif" font-size="14.00" fill="#000000">X</text>
</g>
<!-- c1&#45;&#45;LC1 -->
<g id="edge11" class="edge">
<title>c1:sw&#45;&#45;LC1:n</title>
<path fill="none" stroke="#000000" d="M239,-137C222.2373,-120.2373 193,-133.706 193,-110"/>
</g>
<!-- RC1 -->
<g id="node14" class="node">
<title>RC1</title>
<text text-anchor="middle" x="265" y="-88.3" font-family="Times,serif" font-size="14.00" fill="#000000">Y</text>
</g>
<!-- c1&#45;&#45;RC1 -->
<g id="edge12" class="edge">
<title>c1:se&#45;&#45;RC1:n</title>
<path fill="none" stroke="#000000" d="M265,-137C273.4853,-128.5147 265,-122 265,-110"/>
</g>
</g>
</svg>
